<svg width="70" height="70" viewBox="0 0 70 70" fill="none" xmlns="http://www.w3.org/2000/svg">
<path d="M35 6.5625C19.2948 6.5625 6.5625 19.2948 6.5625 35C6.5625 48.428 15.8725 59.675 28.3883 62.6566C27.7408 62.5023 27.0988 62.3295 26.4688 62.1327V55.6172C26.4688 55.6172 25.4023 55.9727 23.9805 55.9727C20.0025 55.9727 18.3498 52.4234 17.9375 50.6406C17.687 49.5545 17.033 48.5253 16.3308 47.8964C15.4919 47.1483 15.0992 47.1461 15.0938 46.8902C15.0828 46.3531 15.8134 46.375 16.1602 46.375C17.9375 46.375 19.285 48.2661 19.9106 49.2439C21.4605 51.6578 23.1241 52.0625 23.9805 52.0625C25.0469 52.0625 25.9678 51.9028 26.6022 51.5966C26.8953 49.5316 27.8141 47.6919 29.3125 46.375C22.6439 45.0417 17.9375 41.2169 17.9375 35C17.9375 31.7975 19.2227 28.8542 21.3642 26.4775C21.1455 25.8573 20.7812 24.6028 20.7812 22.5586C20.7812 21.2078 20.8753 19.5497 21.4922 17.9375C21.4922 17.9375 25.5478 17.9659 29.3727 21.5884C31.138 21.0744 33.0269 20.7812 35 20.7812C36.9731 20.7812 38.862 21.0744 40.6273 21.5884C44.4522 17.9659 48.5078 17.9375 48.5078 17.9375C49.128 19.5497 49.2188 21.2078 49.2188 22.5586C49.2188 24.7625 48.9256 26.0477 48.7463 26.6022C50.8222 28.957 52.0625 31.8544 52.0625 35C52.0625 41.2169 47.3561 45.0417 40.6875 46.375C42.4681 47.9391 43.5312 50.2173 43.5312 52.7734V62.1327C42.9012 62.3306 42.2603 62.5023 41.6117 62.6566C54.1275 59.675 63.4375 48.428 63.4375 35C63.4375 19.2948 50.7052 6.5625 35 6.5625ZM36.983 63.3609C36.3278 63.4069 35.6672 63.4375 35 63.4375C35.6672 63.4375 36.3267 63.4058 36.983 63.3609ZM35 63.4375C34.3328 63.4375 33.6722 63.4069 33.017 63.3609C33.6733 63.4058 34.3328 63.4375 35 63.4375ZM32.5806 63.3281C31.2495 63.2155 29.9436 63.012 28.6716 62.7222C29.9447 63.0109 31.2495 63.2155 32.5806 63.3281Z" fill="#2B4923"/>
</svg>
