<svg width="70" height="70" viewBox="0 0 70 70" fill="none" xmlns="http://www.w3.org/2000/svg">
<path d="M58.275 15.0771C52.7023 10.5927 43.8867 9.83257 43.5094 9.80522C42.9242 9.75601 42.3664 10.0841 42.1258 10.6255C42.1039 10.6584 41.9125 11.1013 41.6992 11.7904C45.3851 12.4138 49.9133 13.6662 54.0094 16.2091C54.6656 16.6138 54.868 17.4779 54.4633 18.1341C54.1953 18.5662 53.7414 18.8013 53.2711 18.8013C53.0195 18.8013 52.7625 18.7302 52.5328 18.588C45.489 14.2185 36.6953 13.9998 35 13.9998C33.3047 13.9998 24.5055 14.2185 17.4672 18.588C16.8109 18.9982 15.9469 18.7958 15.5422 18.1396C15.132 17.4779 15.3344 16.6193 15.9906 16.2091C20.0867 13.6716 24.6148 12.4138 28.3008 11.7959C28.0875 11.1013 27.8961 10.6638 27.8797 10.6255C27.6336 10.0841 27.0812 9.74507 26.4906 9.80522C26.1133 9.83257 17.2976 10.5927 11.6484 15.1373C8.70077 17.8662 2.79999 33.813 2.79999 47.5998C2.79999 47.8459 2.86561 48.081 2.98593 48.2943C7.05468 55.4474 18.1617 57.3177 20.6937 57.3998C20.7047 57.3998 20.7211 57.3998 20.7375 57.3998C21.1859 57.3998 21.607 57.1865 21.8695 56.8255L24.4289 53.3037C17.5219 51.5209 13.9945 48.4912 13.7922 48.3107C13.2125 47.8021 13.1578 46.9162 13.6719 46.3365C14.1805 45.7568 15.0664 45.7021 15.6461 46.2107C15.7281 46.2873 22.225 51.7998 35 51.7998C47.7969 51.7998 54.2937 46.2654 54.3594 46.2107C54.939 45.7076 55.8195 45.7568 56.3336 46.3419C56.8422 46.9216 56.7875 47.8021 56.2078 48.3107C56.0055 48.4912 52.4781 51.5209 45.5711 53.3037L48.1305 56.8255C48.393 57.1865 48.814 57.3998 49.2625 57.3998C49.2789 57.3998 49.2953 57.3998 49.3062 57.3998C51.8383 57.3177 62.9453 55.4474 67.014 48.2943C67.1344 48.081 67.2 47.8459 67.2 47.5998C67.2 33.813 61.2992 17.8662 58.275 15.0771ZM25.9 41.9998C23.193 41.9998 21 39.4951 21 36.3998C21 33.3044 23.193 30.7998 25.9 30.7998C28.607 30.7998 30.8 33.3044 30.8 36.3998C30.8 39.4951 28.607 41.9998 25.9 41.9998ZM44.1 41.9998C41.393 41.9998 39.2 39.4951 39.2 36.3998C39.2 33.3044 41.393 30.7998 44.1 30.7998C46.807 30.7998 49 33.3044 49 36.3998C49 39.4951 46.807 41.9998 44.1 41.9998Z" fill="#2B4923"/>
</svg>
