<svg width="70" height="70" viewBox="0 0 70 70" fill="none" xmlns="http://www.w3.org/2000/svg">
<path d="M22.4 4.2002C12.362 4.2002 4.19995 12.3622 4.19995 22.4002V47.6002C4.19995 57.6382 12.362 65.8002 22.4 65.8002H47.5999C57.638 65.8002 65.7999 57.6382 65.7999 47.6002V22.4002C65.7999 12.3622 57.638 4.2002 47.5999 4.2002H22.4ZM51.7999 15.4002C53.34 15.4002 54.5999 16.6602 54.5999 18.2002C54.5999 19.7402 53.34 21.0002 51.7999 21.0002C50.2599 21.0002 49 19.7402 49 18.2002C49 16.6602 50.2599 15.4002 51.7999 15.4002ZM35 19.6002C43.498 19.6002 50.4 26.5022 50.4 35.0002C50.4 43.4982 43.498 50.4002 35 50.4002C26.502 50.4002 19.6 43.4982 19.6 35.0002C19.6 26.5022 26.502 19.6002 35 19.6002ZM35 22.4002C28.056 22.4002 22.4 28.0562 22.4 35.0002C22.4 41.9442 28.056 47.6002 35 47.6002C41.944 47.6002 47.5999 41.9442 47.5999 35.0002C47.5999 28.0562 41.944 22.4002 35 22.4002Z" fill="#2B4923"/>
</svg>
