<svg width="100" height="100" viewBox="0 0 100 100" fill="none" xmlns="http://www.w3.org/2000/svg">
<path d="M50 49.9999C52.2917 49.9999 54.2535 49.1839 55.8854 47.552C57.5174 45.9201 58.3334 43.9583 58.3334 41.6666C58.3334 39.3749 57.5174 37.4131 55.8854 35.7812C54.2535 34.1492 52.2917 33.3333 50 33.3333C47.7084 33.3333 45.7465 34.1492 44.1146 35.7812C42.4827 37.4131 41.6667 39.3749 41.6667 41.6666C41.6667 43.9583 42.4827 45.9201 44.1146 47.552C45.7465 49.1839 47.7084 49.9999 50 49.9999ZM50 80.6249C58.4722 72.8471 64.757 65.7812 68.8542 59.427C72.9514 53.0728 75 47.4305 75 42.4999C75 34.9305 72.5868 28.7326 67.7604 23.9062C62.934 19.0798 57.0139 16.6666 50 16.6666C42.9861 16.6666 37.066 19.0798 32.2396 23.9062C27.4132 28.7326 25 34.9305 25 42.4999C25 47.4305 27.0486 53.0728 31.1459 59.427C35.2431 65.7812 41.5278 72.8471 50 80.6249ZM50 91.6666C38.8195 82.1527 30.4688 73.3159 24.9479 65.1562C19.4271 56.9964 16.6667 49.4444 16.6667 42.4999C16.6667 32.0833 20.0174 23.7846 26.7188 17.6041C33.4202 11.4235 41.1806 8.33325 50 8.33325C58.8195 8.33325 66.5799 11.4235 73.2813 17.6041C79.9827 23.7846 83.3334 32.0833 83.3334 42.4999C83.3334 49.4444 80.5729 56.9964 75.0521 65.1562C69.5313 73.3159 61.1806 82.1527 50 91.6666Z" fill="#5DE412"/>
</svg>
