<svg width="100" height="100" viewBox="0 0 100 100" fill="none" xmlns="http://www.w3.org/2000/svg">
<path d="M16.6667 16.6667L25 33.3334H37.5L29.1667 16.6667H37.5L45.8334 33.3334H58.3334L50 16.6667H58.3334L66.6667 33.3334H79.1667L70.8334 16.6667H83.3334C85.625 16.6667 87.5869 17.4827 89.2188 19.1147C90.8507 20.7466 91.6667 22.7084 91.6667 25.0001V75.0001C91.6667 77.2917 90.8507 79.2536 89.2188 80.8855C87.5869 82.5174 85.625 83.3334 83.3334 83.3334H16.6667C14.375 83.3334 12.4132 82.5174 10.7813 80.8855C9.14935 79.2536 8.33337 77.2917 8.33337 75.0001V25.0001C8.33337 22.7084 9.14935 20.7466 10.7813 19.1147C12.4132 17.4827 14.375 16.6667 16.6667 16.6667ZM16.6667 41.6667V75.0001H83.3334V41.6667H16.6667Z" fill="#5DE412"/>
</svg>
