<svg width="100" height="100" viewBox="0 0 100 100" fill="none" xmlns="http://www.w3.org/2000/svg">
<path d="M64.5833 45.8333C66.3194 45.8333 67.7951 45.2256 69.0104 44.0103C70.2257 42.7951 70.8333 41.3194 70.8333 39.5833C70.8333 37.8471 70.2257 36.3714 69.0104 35.1562C67.7951 33.9409 66.3194 33.3333 64.5833 33.3333C62.8472 33.3333 61.3715 33.9409 60.1562 35.1562C58.941 36.3714 58.3333 37.8471 58.3333 39.5833C58.3333 41.3194 58.941 42.7951 60.1562 44.0103C61.3715 45.2256 62.8472 45.8333 64.5833 45.8333ZM35.4167 45.8333C37.1528 45.8333 38.6285 45.2256 39.8437 44.0103C41.059 42.7951 41.6667 41.3194 41.6667 39.5833C41.6667 37.8471 41.059 36.3714 39.8437 35.1562C38.6285 33.9409 37.1528 33.3333 35.4167 33.3333C33.6806 33.3333 32.2049 33.9409 30.9896 35.1562C29.7743 36.3714 29.1667 37.8471 29.1667 39.5833C29.1667 41.3194 29.7743 42.7951 30.9896 44.0103C32.2049 45.2256 33.6806 45.8333 35.4167 45.8333ZM50 72.9166C54.7222 72.9166 59.0104 71.5798 62.8646 68.9062C66.7187 66.2326 69.5139 62.7083 71.25 58.3333H64.375C62.8472 60.9027 60.816 62.9339 58.2812 64.427C55.7465 65.9201 52.9861 66.6666 50 66.6666C47.0139 66.6666 44.2535 65.9201 41.7187 64.427C39.184 62.9339 37.1528 60.9027 35.625 58.3333H28.75C30.4861 62.7083 33.2812 66.2326 37.1354 68.9062C40.9896 71.5798 45.2778 72.9166 50 72.9166ZM50 91.6666C44.2361 91.6666 38.8194 90.5728 33.75 88.3853C28.6806 86.1978 24.2708 83.2291 20.5208 79.4791C16.7708 75.7291 13.8021 71.3194 11.6146 66.2499C9.42708 61.1805 8.33333 55.7638 8.33333 49.9999C8.33333 44.236 9.42708 38.8194 11.6146 33.7499C13.8021 28.6805 16.7708 24.2708 20.5208 20.5208C24.2708 16.7708 28.6806 13.802 33.75 11.6145C38.8194 9.427 44.2361 8.33325 50 8.33325C55.7639 8.33325 61.1806 9.427 66.25 11.6145C71.3194 13.802 75.7292 16.7708 79.4792 20.5208C83.2292 24.2708 86.1979 28.6805 88.3854 33.7499C90.5729 38.8194 91.6667 44.236 91.6667 49.9999C91.6667 55.7638 90.5729 61.1805 88.3854 66.2499C86.1979 71.3194 83.2292 75.7291 79.4792 79.4791C75.7292 83.2291 71.3194 86.1978 66.25 88.3853C61.1806 90.5728 55.7639 91.6666 50 91.6666ZM50 83.3333C59.3056 83.3333 67.1875 80.1041 73.6458 73.6458C80.1042 67.1874 83.3333 59.3055 83.3333 49.9999C83.3333 40.6944 80.1042 32.8124 73.6458 26.3541C67.1875 19.8958 59.3056 16.6666 50 16.6666C40.6944 16.6666 32.8125 19.8958 26.3542 26.3541C19.8958 32.8124 16.6667 40.6944 16.6667 49.9999C16.6667 59.3055 19.8958 67.1874 26.3542 73.6458C32.8125 80.1041 40.6944 83.3333 50 83.3333Z" fill="#5DE412"/>
</svg>
